Coordinates	
version=1	
nRows=211	
nColumns=2	
inDegrees=yes	
endheader	
time	elbow_flexion
0	40
0.003114546	39.99524284
0.006229092	39.98098245
0.009122332	39.95925302
0.01141493	39.93628199
0.013178804	39.9151535
0.014657133	39.89514354
0.016135463	39.87303469
0.017518118	39.8504729
0.018900774	39.82608538
0.020191416	39.80168796
0.021482057	39.77571141
0.022775797	39.74810154
0.024069537	39.71891609
0.025618549	39.68191633
0.027167562	39.64268324
0.028398336	39.60991892
0.02962911	39.57575319
0.030859884	39.54019051
0.032090659	39.50323734
0.033321433	39.464897
0.034552207	39.42517793
0.035782981	39.3840847
0.037013756	39.3416192
0.038086328	39.30350144
0.039158901	39.264351
0.040159958	39.22688452
0.041161015	39.18852651
0.042162072	39.14928035
0.043163129	39.10914931
0.044164186	39.06813651
0.045165244	39.02624535
0.046166301	38.98347894
0.047167358	38.93984091
0.048168415	38.89533421
0.049169472	38.84996283
0.05017053	38.80372961
0.051171587	38.7566384
0.052172644	38.70869242
0.053173701	38.65989567
0.054174758	38.61025119
0.055175815	38.5597631
0.056176873	38.50843453
0.05717793	38.45626973
0.058178987	38.40327183
0.059180044	38.34944507
0.060181101	38.2947927
0.061182159	38.2393193
0.062183216	38.18302795
0.063184273	38.12592272
0.06418533	38.06800777
0.065186387	38.00928655
0.066187444	37.94976398
0.067188502	37.88944307
0.068189559	37.82832782
0.069190616	37.7664233
0.070191673	37.70373258
0.07119273	37.64025972
0.072193788	37.57600988
0.073194845	37.51098622
0.074195902	37.44519289
0.075196959	37.37863526
0.076198016	37.31131645
0.077199074	37.24324068
0.078200131	37.17441298
0.079201188	37.10483693
0.080202245	37.03451756
0.081203302	36.96345852
0.082204359	36.8916651
0.083205417	36.81914085
0.084206474	36.74589038
0.085207531	36.67191869
0.086208588	36.59722949
0.087209645	36.52182807
0.088210703	36.44571817
0.08921176	36.36890503
0.090212817	36.29139247
0.091213874	36.21318629
0.092214931	36.13428999
0.093215988	36.05470808
0.094217046	35.97444613
0.095218103	35.89350792
0.09621916	35.81189852
0.097220217	35.72962255
0.098221274	35.64668496
0.099222332	35.56308986
0.100223389	35.47884363
0.101224446	35.39394925
0.102225503	35.30841164
0.10322656	35.22223693
0.104227617	35.13542875
0.105228675	35.04799181
0.106229732	34.95993161
0.107230789	34.87125223
0.108231846	34.78196035
0.109232903	34.69205889
0.110233961	34.60155286
0.111235018	34.51044896
0.112236075	34.41875041
0.113237132	34.3264623
0.114238189	34.23358918
0.115239247	34.14013831
0.116240304	34.04611181
0.117241361	33.95151576
0.118242418	33.85635602
0.119243475	33.76063695
0.120244532	33.66436244
0.12124559	33.56753826
0.122246647	33.47017032
0.123247704	33.37226299
0.124248761	33.2738203
0.125249818	33.17484813
0.126250876	33.07535217
0.127251933	32.97533675
0.12825299	32.87480621
0.129254047	32.77376643
0.130255104	32.67222117
0.131256161	32.57017845
0.132257219	32.46763994
0.133258276	32.36461229
0.134259333	32.26110162
0.13526039	32.1571108
0.136261447	32.0526454
0.137262505	31.94771191
0.138263562	31.84231285
0.139157066	31.74785186
0.140050569	31.65303009
0.140944073	31.55785153
0.141837577	31.46232027
0.142731081	31.36643989
0.143624585	31.27021376
0.144518089	31.17364542
0.145411593	31.07673856
0.146305096	30.97949728
0.1471986	30.88192453
0.148092104	30.78402363
0.148985608	30.68579931
0.149879112	30.58725379
0.150772616	30.48839203
0.15166612	30.38921625
0.152559624	30.28973136
0.153453127	30.18993961
0.154346631	30.08984597
0.155240135	29.98945264
0.156133639	29.8887644
0.157027143	29.78778357
0.157920647	29.68651543
0.158814151	29.58496182
0.159707654	29.48312688
0.160601158	29.38101477
0.161494662	29.27862836
0.162388166	29.17597085
0.16328167	29.07304718
0.164175174	28.96985923
0.165068678	28.86641196
0.165962181	28.76270746
0.166821778	28.66270081
0.167681374	28.56246342
0.16854097	28.46199863
0.169400567	28.36131027
0.170260163	28.26040058
0.171119759	28.15927366
0.171979356	28.05793168
0.172838952	27.95637857
0.173698548	27.85461665
0.174558144	27.75265016
0.175417741	27.65048107
0.176277337	27.54811301
0.177136933	27.44554896
0.17799653	27.34279221
0.178856126	27.23984556
0.179715722	27.13671258
0.180575318	27.03339559
0.181448422	26.92827132
0.182321525	26.82296314
0.183194629	26.717475
0.184067732	26.61181027
0.184940836	26.50597193
0.185813939	26.39996305
0.186687043	26.29378712
0.187560146	26.18744739
0.18843325	26.0809473
0.189306353	25.9742882
0.190164257	25.86933742
0.19102216	25.76423915
0.191896843	25.65693996
0.192771525	25.54949315
0.193767167	25.42701768
0.194762809	25.30436002
0.195642716	25.19581459
0.196522622	25.08713321
0.197404983	24.97802092
0.198287343	24.86878102
0.199169703	24.75941574
0.200057518	24.64925315
0.200945332	24.53896944
0.201833147	24.42857028
0.202720961	24.31805652
0.203608776	24.20743483
0.204496591	24.09670748
0.205384405	23.98587611
0.20627222	23.87494585
0.207160035	23.76391557
0.208365292	23.61304098
0.209570548	23.46199549
0.211101774	23.26984662
0.212277852	23.12212485
0.213286331	22.9953416
0.214294809	22.86845525
0.215163318	22.75911459
0.216031827	22.64970815
